<?xml version="1.0" encoding="utf-8"?>
<!-- Generator: Adobe Illustrator 24.2.1, SVG Export Plug-In . SVG Version: 6.00 Build 0)  -->
<svg version="1.1" id="Warstwa_1" xmlns="http://www.w3.org/2000/svg" xmlns:xlink="http://www.w3.org/1999/xlink" x="0px" y="0px"
	 viewBox="0 0 150 150" style="enable-background:new 0 0 150 150;" xml:space="preserve">
<style type="text/css">
	.st0{fill:none;stroke:#2D00FF;stroke-width:4;stroke-linecap:round;stroke-miterlimit:10;}
	.st1{fill:none;stroke:#2D00FF;stroke-width:4;stroke-linecap:round;stroke-linejoin:round;}
</style>
<g id="Group_466" transform="translate(-1066.527 -1065.99)">
	<g id="Group_179" transform="translate(1068.527 1067.99)">
		<g id="Group_178">
			<g id="Group_177">
				<path id="Path_5031" class="st0" d="M52,46.1l8.4,6.9c2.6,2.1,4,5.2,4,8.5v18c0,5.5-4.4,9.9-9.9,9.9l0,0"/>
				<path id="Path_5032" class="st0" d="M21.5,46.1L13.1,53c-2.6,2.1-4,5.2-4,8.5v18c0,5.5,4.4,9.9,9.9,9.9l0,0"/>
				<path id="Path_5033" class="st0" d="M54,64.2l0,5.9v58.7c0,4.8-3.9,8.6-8.6,8.6h-2.7"/>
				<path id="Path_5034" class="st0" d="M19.5,64.2l0,5.9v58.7c0,4.8,3.9,8.6,8.6,8.6l0,0c4.8,0,8.6-3.9,8.6-8.6V94.6"/>
				<circle id="Ellipse_83" class="st0" cx="36.7" cy="25.9" r="17.4"/>
			</g>
		</g>
	</g>
	<path id="Path_5035" class="st1" d="M1122.5,1076.5h82.9v72.4h-65.2"/>
	<path id="Path_5036" class="st1" d="M1157.9,1148.8v37.9l-16.7,18.8"/>
	<line id="Line_290" class="st1" x1="1157.9" y1="1186.7" x2="1173.7" y2="1205.5"/>
	<path id="Path_5037" class="st1" d="M1141.5,1137.6l26-26l9.8,9.8l20.2-20.2"/>
</g>
</svg>
