<?xml version="1.0" encoding="utf-8"?>
<!-- Generator: Adobe Illustrator 24.2.1, SVG Export Plug-In . SVG Version: 6.00 Build 0)  -->
<svg version="1.1" id="Warstwa_1" xmlns="http://www.w3.org/2000/svg" xmlns:xlink="http://www.w3.org/1999/xlink" x="0px" y="0px"
	 viewBox="0 0 52 58" style="enable-background:new 0 0 52 58;" xml:space="preserve">
<style type="text/css">
	.st0{fill:none;stroke:#2D00FF;stroke-width:2;stroke-linecap:round;stroke-linejoin:round;}
</style>
<g id="Group_164" transform="translate(-524.971 -1241.171)">
	<g id="Group_163" transform="translate(525.995 1242.171)">
		<path id="Path_5006" class="st0" d="M36.5,2.3h8.3c1.9,0,3.4,1.5,3.4,3.4l0,0v27.1c0,1.9-1.5,3.4-3.4,3.4c0,0,0,0,0,0H5.9
			c-1.9,0-3.4-1.5-3.4-3.4l0,0V5.7c0-1.9,1.5-3.4,3.4-3.4c0,0,0,0,0,0H36.5"/>
		<path id="Path_5007" class="st0" d="M13.7,36.2l-2.1,5.2h27.4L37,36.2"/>
		<path id="Path_5008" class="st0" d="M44.6,45.4l4,7.2c0.4,0.8,0.1,1.8-0.6,2.2c-0.2,0.1-0.5,0.2-0.8,0.2H3.6C2.7,55,2,54.3,2,53.4
			c0-0.3,0.1-0.5,0.2-0.8l4-7.2H44.6z"/>
	</g>
</g>
</svg>
