<?xml version="1.0" encoding="utf-8"?>
<!-- Generator: Adobe Illustrator 24.2.1, SVG Export Plug-In . SVG Version: 6.00 Build 0)  -->
<svg version="1.1" id="Warstwa_1" xmlns="http://www.w3.org/2000/svg" xmlns:xlink="http://www.w3.org/1999/xlink" x="0px" y="0px"
	 viewBox="0 0 62 54" style="enable-background:new 0 0 62 54;" xml:space="preserve">
<style type="text/css">
	.st0{fill:none;stroke:#2D00FF;stroke-width:2;stroke-linecap:round;stroke-miterlimit:10;}
	.st1{fill:none;stroke:#2D00FF;stroke-width:2;stroke-linecap:round;stroke-linejoin:round;stroke-miterlimit:10;}
</style>
<g id="Group_165" transform="translate(-1983.74 -1075.456)">
	<path id="Path_5009" class="st0" d="M2024.8,1085.2c-9-9-23.5-8.9-32.5,0c-9,9-8.9,23.5,0,32.5c9,9,23.5,8.9,32.5,0
		c5.5-5.5,7.9-13.5,6.2-21.2"/>
	<path id="Path_5010" class="st0" d="M2017.7,1092c-5.2-5-13.5-4.9-18.6,0.3c-5,5.2-4.9,13.5,0.3,18.6c5.2,5,13.5,4.9,18.6-0.3
		c3-3.1,4.3-7.6,3.4-11.8"/>
	<path id="Path_5011" class="st0" d="M2008.5,1095.5c-3.3,0-6,2.7-6,6s2.7,6,6,6c3.3,0,6-2.7,6-6l0,0"/>
	<line id="Line_281" class="st0" x1="1996.2" y1="1121.1" x2="1992.1" y2="1127.7"/>
	<line id="Line_282" class="st0" x1="2020.9" y1="1121.1" x2="2025" y2="1127.7"/>
	<line id="Line_283" class="st0" x1="2008.5" y1="1101.4" x2="2028.7" y2="1090.4"/>
	<path id="Path_5012" class="st0" d="M2034.4,1091.9l-5.8-1.5l1.5-5.8"/>
	<path id="Path_5013" class="st0" d="M2039,1089.3l-5.8-1.5l1.5-5.8"/>
	<path id="Path_5014" class="st0" d="M2043.6,1086.7l-5.8-1.5l1.5-5.8"/>
	<path id="Path_5015" class="st1" d="M2009,1098.5l-0.6,3l2.3,1"/>
</g>
</svg>
