<?xml version="1.0" encoding="utf-8"?>
<!-- Generator: Adobe Illustrator 24.2.1, SVG Export Plug-In . SVG Version: 6.00 Build 0)  -->
<svg version="1.1" id="Warstwa_1" xmlns="http://www.w3.org/2000/svg" xmlns:xlink="http://www.w3.org/1999/xlink" x="0px" y="0px"
	 viewBox="0 0 66 62" style="enable-background:new 0 0 66 62;" xml:space="preserve">
<style type="text/css">
	.st0{fill:none;stroke:#FFFFFF;stroke-width:2;stroke-miterlimit:10;}
</style>
<g id="Group_628" transform="translate(-1288.301 -1573.651)">
	<g id="Group_625" transform="translate(1312.702 1598.362)">
		<path id="Path_5277" class="st0" d="M35.6,8.9v18.4l-15.3,5.1L5,27.3V8.9l15.3-5.1L35.6,8.9z"/>
		<path id="Path_5278" class="st0" d="M35.6,8.9L20.3,14L5,8.9"/>
		<line id="Line_359" class="st0" x1="20.3" y1="14" x2="20.3" y2="32.4"/>
	</g>
	<g id="Group_626" transform="translate(1289.301 1597.983)">
		<path id="Path_5279" class="st0" d="M28.4,7.7v14l-11.7,3.9L5,21.8v-14l11.7-3.9L28.4,7.7z"/>
		<path id="Path_5280" class="st0" d="M28.4,7.7l-11.7,3.9L5,7.7"/>
		<line id="Line_360" class="st0" x1="16.7" y1="11.6" x2="16.7" y2="25.7"/>
	</g>
	<g id="Group_627" transform="translate(1303.71 1574.705)">
		<path id="Path_5281" class="st0" d="M26.6,7.4v12.7l-10.8,3.5L5,20.1V7.4l10.8-3.5L26.6,7.4z"/>
		<path id="Path_5282" class="st0" d="M26.6,7.4l-10.8,3.5L5,7.4"/>
		<line id="Line_361" class="st0" x1="15.8" y1="10.9" x2="15.8" y2="23.6"/>
	</g>
</g>
</svg>
