<?xml version="1.0" encoding="utf-8"?>
<!-- Generator: Adobe Illustrator 24.2.1, SVG Export Plug-In . SVG Version: 6.00 Build 0)  -->
<svg version="1.1" id="Warstwa_1" xmlns="http://www.w3.org/2000/svg" xmlns:xlink="http://www.w3.org/1999/xlink" x="0px" y="0px"
	 viewBox="0 0 150 150" style="enable-background:new 0 0 150 150;" xml:space="preserve">
<style type="text/css">
	.st0{fill:none;stroke:#2D00FF;stroke-width:4;stroke-linecap:round;stroke-linejoin:round;}
	.st1{fill:none;stroke:#2D00FF;stroke-width:4;stroke-linecap:round;stroke-miterlimit:10;}
</style>
<g id="Group_176" transform="translate(-751.821 -779.594)">
	<path id="Path_5027" class="st0" d="M789.9,808.2h106.1v105.9H772.2c-8,0-14.5-6.5-14.5-14.5v-91.9c0-6.9,5.6-12.6,12.6-12.6
		c0,0,0,0,0,0l0,0c6.9,0,12.6,5.6,12.6,12.6v89.7c0,0-9.6-8.5-20.2-3.4"/>
	<path id="Path_5028" class="st1" d="M828,897.8v-70.8h21.2v70.8"/>
	<path id="Path_5029" class="st1" d="M806.8,897.5v-47.1H828"/>
	<path id="Path_5030" class="st1" d="M849.1,868.9h21.2v28.6"/>
	<line id="Line_289" class="st1" x1="880.1" y1="897.8" x2="794.4" y2="897.8"/>
</g>
</svg>
