<?xml version="1.0" encoding="utf-8"?>
<!-- Generator: Adobe Illustrator 24.2.1, SVG Export Plug-In . SVG Version: 6.00 Build 0)  -->
<svg version="1.1" id="Warstwa_1" xmlns="http://www.w3.org/2000/svg" xmlns:xlink="http://www.w3.org/1999/xlink" x="0px" y="0px"
	 viewBox="0 0 134 150" style="enable-background:new 0 0 134 150;" xml:space="preserve">
<style type="text/css">
	.st0{fill:none;stroke:#2D00FF;stroke-width:4;stroke-linecap:round;stroke-miterlimit:10;}
	.st1{fill:#2D00FF;stroke:#2D00FF;stroke-width:4;stroke-linecap:round;stroke-miterlimit:10;}
</style>
<g id="Group_183" transform="translate(-1975.423 -1366.324)">
	<path id="Path_5049" class="st0" d="M2091.1,1381h11.4v105.9c0,14.2-11.5,25.7-25.7,25.7l0,0h-85.1v-11.4"/>
	<path id="Path_5050" class="st0" d="M2063,1370.1h-80.7v131.1h85.6c3.9,0,7.1-3.2,7.1-7.1c0,0,0,0,0,0v-9h9c3.9,0,7.1-3.2,7.1-7.1
		c0,0,0,0,0,0v-107.9H2063"/>
	<path id="Path_5051" class="st0" d="M2025.1,1424.2c0-5.6,4.5-10.2,10.2-10.2c5.6,0,10.2,4.5,10.2,10.2c0,3.7-2.1,7.2-5.4,9
		c-3,1.7-4.9,4.9-4.8,8.3v4.1"/>
	<path id="Path_5052" class="st1" d="M2036.4,1453c0,0.6-0.5,1.1-1.1,1.1c-0.6,0-1.1-0.5-1.1-1.1c0-0.6,0.5-1.1,1.1-1.1l0,0
		C2035.9,1451.8,2036.4,1452.3,2036.4,1453z"/>
</g>
</svg>
