<?xml version="1.0" encoding="utf-8"?>
<!-- Generator: Adobe Illustrator 24.2.1, SVG Export Plug-In . SVG Version: 6.00 Build 0)  -->
<svg version="1.1" id="Warstwa_1" xmlns="http://www.w3.org/2000/svg" xmlns:xlink="http://www.w3.org/1999/xlink" x="0px" y="0px"
	 viewBox="0 0 48 50" style="enable-background:new 0 0 48 50;" xml:space="preserve">
<style type="text/css">
	.st0{fill:none;stroke:#2D00FF;stroke-width:2;stroke-linecap:round;stroke-linejoin:round;}
	.st1{fill:none;stroke:#2D00FF;stroke-width:2;stroke-linecap:round;stroke-miterlimit:10;}
</style>
<g id="Group_172" transform="translate(-442.842 -753.975)">
	<g id="Group_171" transform="translate(443.842 754.975)">
		<path id="Path_5016" class="st0" d="M13.1,1.2c-1.7,0-3.2,1.4-3.2,3.2l0,0v15.5l3.1-3h8.5l1.7,3l1.8-3h8.5l3.1,3V4.3
			c0-1.7-1.4-3.2-3.2-3.2c0,0,0,0,0,0H13.1z"/>
		<g id="Group_170" transform="translate(0 23.7)">
			<g id="Group_169" transform="translate(0 9.805)">
				<g id="Group_166" transform="translate(30.001)">
					<path id="Path_5017" class="st0" d="M12.6,1.2l3.1,2.7v9.3"/>
					<line id="Line_284" class="st0" x1="3.9" y1="1.2" x2="0.8" y2="3.9"/>
				</g>
				<g id="Group_167">
					<path id="Path_5018" class="st0" d="M3.9,1.2L0.8,3.9v9.3"/>
					<line id="Line_285" class="st0" x1="12.6" y1="1.2" x2="15.8" y2="3.9"/>
				</g>
				<g id="Group_168" transform="translate(15.001)">
					<line id="Line_286" class="st0" x1="3.9" y1="1.2" x2="0.8" y2="3.9"/>
					<path id="Path_5019" class="st0" d="M12.6,1.2l3.1,2.7v9.3"/>
				</g>
				<line id="Line_287" class="st1" x1="15.8" y1="3.9" x2="15.8" y2="13.3"/>
			</g>
			<ellipse id="Ellipse_79" class="st1" cx="38.3" cy="6.1" rx="4.3" ry="4.9"/>
			<ellipse id="Ellipse_80" class="st1" cx="23.3" cy="6.1" rx="4.3" ry="4.9"/>
			<ellipse id="Ellipse_81" class="st1" cx="8.3" cy="6.1" rx="4.3" ry="4.9"/>
		</g>
	</g>
</g>
</svg>
