<?xml version="1.0" encoding="utf-8"?>
<!-- Generator: Adobe Illustrator 24.2.1, SVG Export Plug-In . SVG Version: 6.00 Build 0)  -->
<svg version="1.1" id="Warstwa_1" xmlns="http://www.w3.org/2000/svg" xmlns:xlink="http://www.w3.org/1999/xlink" x="0px" y="0px"
	 viewBox="0 0 150 150" style="enable-background:new 0 0 150 150;" xml:space="preserve">
<style type="text/css">
	.st0{fill:none;stroke:#2D00FF;stroke-width:4;stroke-linecap:round;stroke-miterlimit:10;}
	.st1{fill:none;stroke:#2D00FF;stroke-width:4.0005;stroke-linecap:round;stroke-miterlimit:10.0011;}
</style>
<g id="Group_175" transform="translate(-1367.631 -438.137)">
	<g id="Group_174" transform="translate(1369.635 440.945)">
		<g id="Group_173" transform="translate(60.223 106.124)">
			<path id="Path_5021" class="st0" d="M5.9,5c0,16.3,7.6,20.3,7.6,20.3s7.5-4,7.6-20.3"/>
			<line id="Line_288" class="st0" x1="13.5" y1="0" x2="13.5" y2="9.3"/>
		</g>
		<path id="Path_5022" class="st0" d="M57.8,95.1c-2.2-4.8-3.9-9.8-5.2-15c-0.2-0.7-0.3-1.4-0.5-2.1C41.8,31.5,73.6,0,73.6,0
			s31.9,31.4,21.6,78c-0.2,0.7-0.3,1.4-0.5,2.1c-1.3,5.1-3,10.1-5.2,15"/>
		<path id="Path_5023" class="st0" d="M95.6,76.3c18,16.2,1.7,39.1,1.7,39.1c-9.1,13.7-9.4,13.8-9.8,15.9
			c-1.3,6.5,4.3,13.3,11.4,13.4h29.3c6.6,0.1,12.2-4.9,12.9-11.5c0.5-6.1-3.4-11.6-9.3-13.2c0-0.3,0.1-0.7,0.1-1
			c0-4.2-3.4-7.7-7.7-7.7c-0.7,0-1.4,0.1-2,0.3c0,0,0-0.1,0-0.1c0-4.2-3.4-7.6-7.6-7.6c-2.2,0-4.3,1-5.8,2.6"/>
		<path id="Path_5024" class="st0" d="M51.3,76.3c-18,16.2-1.7,39.1-1.7,39.1c9.1,13.7,9.4,13.8,9.8,15.9
			c1.3,6.5-4.3,13.3-11.4,13.4H18.8c-6.6,0.1-12.2-4.9-12.9-11.5c-0.5-6.1,3.4-11.6,9.3-13.2c0-0.3-0.1-0.7-0.1-1
			c0-4.2,3.4-7.7,7.7-7.7c0.7,0,1.4,0.1,2,0.3c0,0,0-0.1,0-0.1c0-4.2,3.4-7.6,7.6-7.6c2.2,0,4.3,1,5.8,2.6"/>
		<circle id="Ellipse_82" class="st1" cx="73.6" cy="57.5" r="10.8"/>
		<path id="Path_5025" class="st0" d="M87.2,19.8c-8,6.3-19.2,6.3-27.2,0"/>
	</g>
	<path id="Path_5026" class="st0" d="M1426.6,556.4c0-0.1,0-0.2-0.1-0.3c-1.5-7,2.8-13.9,9.8-15.5c4.5-1.1,9.1-1.1,13.6,0
		c7,1.6,11.4,8.5,9.8,15.5c0,0.1,0,0.2-0.1,0.3"/>
</g>
</svg>
