<?xml version="1.0" encoding="utf-8"?>
<!-- Generator: Adobe Illustrator 24.2.1, SVG Export Plug-In . SVG Version: 6.00 Build 0)  -->
<svg version="1.1" id="Warstwa_1" xmlns="http://www.w3.org/2000/svg" xmlns:xlink="http://www.w3.org/1999/xlink" x="0px" y="0px"
	 viewBox="0 0 66 62" style="enable-background:new 0 0 66 62;" xml:space="preserve">
<style type="text/css">
	.st0{fill:#2D00FF;}
</style>
<path id="Path_1" class="st0" d="M30.5,40.4h-3.8l15.1-26.1H38c-1,1.7-2,3.4-3,5.1c0,0,0-0.1,0-0.1c-0.4-1-1-1.8-1.7-2.6
	c-0.7-0.7-1.6-1.3-2.6-1.7c-1-0.4-2.1-0.7-3.2-0.7H7.8v9.8h19.7c0.4,0,0.9-0.2,1.2-0.5c0.3-0.3,0.5-0.7,0.5-1.1
	c0-0.4-0.2-0.8-0.5-1.1c-0.3-0.3-0.7-0.5-1.1-0.5H11v-3.3h16.5c0.6,0,1.3,0.1,1.9,0.4c0.6,0.2,1.1,0.6,1.5,1.1
	c0.4,0.5,0.8,1,1.1,1.6c0.5,1.2,0.5,2.6,0,3.8c-0.2,0.6-0.6,1.1-1.1,1.5c-0.5,0.4-1,0.8-1.5,1.1c-0.6,0.3-1.2,0.4-1.9,0.4l-19.8,0
	v16.4h9.8v-9.8h-3.3v6.5H11v-9.8l16.5,0c0.4,0,0.7,0,1.1-0.1c-0.5,1-7.4,12.9-7.6,13.1h11.3l11.3-19.6c0.1,0.2,0.4,0.7,0.9,1.6
	c0.5,0.8,1,1.8,1.7,3c0.7,1.1,1.4,2.4,2.1,3.6s1.5,2.5,2.1,3.6c0.7,1.1,1.3,2.1,1.7,3c0.5,0.8,0.8,1.3,0.9,1.6h-3.8l-5.7-9.8
	l-1.9,3.3l5.7,9.8h11.3c-0.9-1.5-15.1-26.1-15.1-26.1C42.5,19.6,31.8,38.1,30.5,40.4z"/>
</svg>
