<?xml version="1.0" encoding="utf-8"?>
<!-- Generator: Adobe Illustrator 24.2.1, SVG Export Plug-In . SVG Version: 6.00 Build 0)  -->
<svg version="1.1" id="Warstwa_1" xmlns="http://www.w3.org/2000/svg" xmlns:xlink="http://www.w3.org/1999/xlink" x="0px" y="0px"
	 viewBox="0 0 66 62" style="enable-background:new 0 0 66 62;" xml:space="preserve">
<style type="text/css">
	.st0{fill:none;}
	.st1{fill:#19FF64;}
	.st2{fill:#0000FF;}
</style>
<g id="Group_317" transform="translate(-240.763 413.427)">
	<g id="Group_113" transform="translate(240.763 -413.427)">
		<g id="Group_106" transform="translate(9.788 24.985)">
			<path id="Path_4984" class="st0" d="M15.6,9.8"/>
		</g>
		<g id="Group_107" transform="translate(16.867 18)">
			<path id="Path_4985" class="st0" d="M15.6,9.8"/>
		</g>
		<g id="Group_108" transform="translate(9.314 25.553)">
			<path id="Path_4986" class="st0" d="M15.6,9.8"/>
		</g>
		<g id="Group_109" transform="translate(6.558 28.785)">
			<path id="Path_4987" class="st0" d="M15.6,9.8"/>
		</g>
		<g id="Group_110" transform="translate(11.881 22.129)">
			<path id="Path_4988" class="st0" d="M15.6,9.8"/>
		</g>
		<g id="Group_112" transform="translate(0)">
			<path id="Path_4989" class="st1" d="M50.4,42.4L33,25L15.6,42.4l9.8,9.8l7.6-7.6l7.6,7.6L50.4,42.4z M20,42.4l13-13l13,13
				l-5.4,5.4L33,40.2l-1.1,1.1l0,0l-6.5,6.5L20,42.4z"/>
			<g id="Group_111">
				<path id="Path_4990" class="st2" d="M42.8,34.8l-7.6-7.6l7.6-7.6L33,9.8L15.6,27.2l7.6,7.6l2.2-2.2L20,27.2l13-13l5.4,5.4
					l-7.6,7.6l7.6,7.6L33,40.2l-5.4-5.4L25.4,37l7.6,7.6L42.8,34.8z"/>
			</g>
		</g>
		<path id="Path_4991" class="st1" d="M25.9,32.1l-3.3,3.3l2.2,2.2l3.6-3.6L25.9,32.1z"/>
	</g>
</g>
</svg>
