<?xml version="1.0" encoding="utf-8"?>
<!-- Generator: Adobe Illustrator 24.2.1, SVG Export Plug-In . SVG Version: 6.00 Build 0)  -->
<svg version="1.1" id="Warstwa_1" xmlns="http://www.w3.org/2000/svg" xmlns:xlink="http://www.w3.org/1999/xlink" x="0px" y="0px"
	 viewBox="0 0 66 62" style="enable-background:new 0 0 66 62;" xml:space="preserve">
<style type="text/css">
	.st0{fill:#00DEFF;}
	.st1{fill:#008BFF;}
</style>
<g id="Group_315" transform="translate(-589 -329.614)">
	<g id="Group_97" transform="translate(596.674 337.207)">
		<path id="Path_4960" class="st0" d="M28.4,39c-8.6,0-15.6-7-15.6-15.6s7-15.6,15.6-15.6c4.1,0,8.1,1.6,11.1,4.6c1,1,1,2.5,0,3.5
			c-1,1-2.5,1-3.5,0c0,0,0,0,0,0c-4.2-4.2-11-4.2-15.1,0c-4.2,4.2-4.2,11,0,15.1c4.2,4.2,10.9,4.2,15.1,0.1c1-1,2.5-0.9,3.5,0
			c1,1,0.9,2.5,0,3.5l0,0C36.5,37.4,32.5,39.1,28.4,39z"/>
	</g>
	<g id="Group_98" transform="translate(596.674 337.207)">
		<path id="Path_4961" class="st1" d="M15.3,25.9c-1.4,0-2.5-1.1-2.5-2.5v0c0-8.6,7-15.6,15.6-15.6c4.1,0,8.1,1.6,11.1,4.6
			c1,1,1,2.5,0,3.5c-1,1-2.5,1-3.5,0c0,0,0,0,0,0c-4.2-4.2-11-4.2-15.1,0c-2,2-3.1,4.7-3.1,7.6C17.7,24.8,16.6,25.9,15.3,25.9
			C15.3,25.9,15.3,25.9,15.3,25.9z"/>
	</g>
	<g id="Group_99" transform="translate(589 329.614)">
		<path id="Path_4962" class="st0" d="M36,54.2c-12.8,0-23.2-10.4-23.2-23.2C12.8,18.2,23.2,7.8,36,7.8c6.1,0,11.9,2.4,16.3,6.7
			c1,1,1,2.5,0,3.5c-1,1-2.5,1-3.5,0l0,0c-7.2-7.1-18.8-7-25.9,0.2C15.9,25.4,16,37,23.2,44c7.2,7,18.7,7,25.8-0.1c1-1,2.5-1,3.5,0
			c1,1,1,2.5,0,3.5c0,0,0,0,0,0C48.1,51.8,42.2,54.2,36,54.2z"/>
	</g>
	<g id="Group_100" transform="translate(589 350.378)">
		<path id="Path_4963" class="st1" d="M36,33.5c-12.8,0-23.2-10.4-23.2-23.2c0-1.4,1.1-2.5,2.5-2.5c1.4,0,2.5,1.1,2.5,2.5
			c0,10.1,8.2,18.3,18.3,18.3c4.9,0,9.5-1.9,12.9-5.4c1-1,2.5-1,3.5,0c1,1,1,2.5,0,3.5c0,0,0,0,0,0C48.1,31,42.2,33.5,36,33.5z"/>
	</g>
</g>
</svg>
