<?xml version="1.0" encoding="utf-8"?>
<!-- Generator: Adobe Illustrator 24.2.1, SVG Export Plug-In . SVG Version: 6.00 Build 0)  -->
<svg version="1.1" id="Warstwa_1" xmlns="http://www.w3.org/2000/svg" xmlns:xlink="http://www.w3.org/1999/xlink" x="0px" y="0px"
	 viewBox="0 0 66 62" style="enable-background:new 0 0 66 62;" xml:space="preserve">
<g id="Group_316" transform="translate(-34.653 -70.781)">
	<path id="Path_4964" d="M45.7,96.3c-0.5-0.5-1.2-0.8-1.9-0.8h-4.1c-0.7,0-1.4,0.3-1.9,0.8c-0.4,0.5-0.7,1.1-0.7,1.7l0,8.1l1.8,1.8
		h0.1c0.1,0,0.1,0,0.1-0.1c0,0,0.1-0.1,0.1-0.2l0-9.7c0-0.4,0.3-0.7,0.7-0.8h3.5c0.4,0,0.8,0.3,0.8,0.8l0,9.7c0,0.1,0,0.1,0.1,0.2
		c0,0,0.1,0.1,0.2,0.1h1.6c0.1,0,0.1,0,0.2-0.1c0-0.1,0.1-0.1,0.1-0.2l0-9.7C46.4,97.4,46.2,96.7,45.7,96.3z"/>
	<path id="Path_4965" d="M55.4,95.5h-4.2c-0.7,0-1.3,0.3-1.8,0.7c-0.5,0.4-0.8,1.1-0.8,1.7l0,7.5c0,0.6,0.2,1.2,0.6,1.7
		c0.5,0.5,1.2,0.8,1.9,0.8h4.4c0.7,0,1.3-0.2,1.8-0.8c0.4-0.5,0.6-1.1,0.6-1.7l0-7.5c0-0.7-0.3-1.3-0.8-1.7
		C56.7,95.8,56,95.5,55.4,95.5z M55.7,105.9c-0.1,0.1-0.3,0.2-0.5,0.2h-3.6c-0.2,0-0.4-0.1-0.5-0.2c-0.1-0.1-0.2-0.3-0.2-0.5l0-7.5
		c0-0.2,0.1-0.4,0.2-0.5c0.1-0.1,0.3-0.2,0.5-0.2h3.6c0.2,0,0.4,0.1,0.5,0.2c0.1,0.1,0.2,0.3,0.2,0.5l0,7.5
		C55.9,105.6,55.8,105.8,55.7,105.9z"/>
	<path id="Path_4966" d="M69.8,95.5h-1.3c-0.2,0-0.3,0.1-0.4,0.2c-0.1,0.1-0.2,0.2-0.2,0.4l-2.9,9.5l-0.2,1.1l-0.3-1.1L61.3,96
		c0-0.1-0.1-0.3-0.2-0.4c-0.1-0.1-0.3-0.2-0.5-0.2h-1.3c-0.3,0-0.4,0.1-0.3,0.3l3.9,11.4c0.1,0.3,0.3,0.5,0.6,0.7
		c0.3,0.1,0.7,0.2,1.1,0.2c0.4,0,0.7,0,1.1-0.2c0.3-0.1,0.5-0.4,0.6-0.7l3.8-11.4c0-0.1,0-0.2,0-0.2C70,95.5,69.9,95.5,69.8,95.5z"
		/>
	<path id="Path_4967" d="M80.6,97.5l-2-2c-0.1,0-0.1,0-0.2,0h-4.8c-0.6,0-1.1,0.2-1.5,0.6c-0.4,0.4-0.6,0.9-0.5,1.5l0,7.8l0,0.6
		c0,0.6,0.2,1.2,0.7,1.5c0.4,0.3,0.9,0.5,1.5,0.5h6.1c0,0,0.1,0,0.1-0.1c0,0,0-0.1,0-0.1l0-1.4c0,0,0-0.1,0-0.1c0,0-0.1-0.1-0.1-0.1
		h-5.3c-0.2,0-0.4-0.1-0.6-0.2c-0.2-0.1-0.3-0.4-0.3-0.6l0-1.6c0-0.1,0-0.3,0.1-0.4c0.1-0.1,0.2-0.2,0.4-0.3l5.3-1.2
		c0.5-0.2,0.9-0.5,1.1-1c0.1-0.4,0.2-0.8,0.1-1.2L80.6,97.5z M78.7,99.9c0,0.2-0.2,0.4-0.4,0.5c0,0-2.8,0.6-3.8,0.9
		c-0.3,0.1-0.6,0.2-0.8,0.4v-3.7c0-0.2,0.1-0.4,0.2-0.5c0.1-0.1,0.3-0.2,0.5-0.2h3.4l0.9,0.9l0,1.2C78.7,99.6,78.7,99.8,78.7,99.9z"
		/>
	<path id="Path_4968" d="M98.1,98c0-0.1,0-0.3,0-0.4l-2-2c-0.2,0-0.4-0.1-0.5-0.1h-3.3c-0.4,0-0.7,0.1-1.1,0.3
		c-0.3,0.2-0.5,0.5-0.6,0.8c-0.1-0.3-0.3-0.6-0.6-0.8c-0.3-0.2-0.7-0.3-1.1-0.3h-3.5c-1.4,0-2.5,1-2.5,2.4c0,0,0,0.1,0,0.1l0,9.7
		c0,0.1,0,0.1,0.1,0.2c0,0,0.1,0.1,0.2,0.1h1.6c0.1,0,0.1,0,0.1-0.1c0,0,0.1-0.1,0.1-0.2L84.9,98c0-0.2,0.1-0.4,0.2-0.5
		c0.1-0.2,0.3-0.2,0.6-0.2h3c0.4,0,0.8,0.3,0.8,0.8l0,9.7c0,0.1,0,0.1,0.1,0.2c0,0,0.1,0.1,0.2,0.1h1.6c0.1,0,0.1,0,0.1-0.1
		c0,0,0.1-0.1,0.1-0.2L91.5,98c0-0.2,0.1-0.4,0.2-0.5c0.1-0.2,0.3-0.2,0.6-0.2H95l1,1l0,9.4c0,0.1,0,0.1,0.1,0.2
		c0,0,0.1,0.1,0.2,0.1h1.6c0.1,0,0.1,0,0.1-0.1c0-0.1,0.1-0.1,0.1-0.2L98.1,98z"/>
</g>
</svg>
